<svg xmlns="http://www.w3.org/2000/svg" viewBox="0 0 64 64" width="64" height="64">
  <defs>
    <linearGradient id="diamondGrad2" x1="0%" y1="0%" x2="100%" y2="100%">
      <stop offset="0%" style="stop-color:#E0FFFF;stop-opacity:1" />
      <stop offset="30%" style="stop-color:#B9F2FF;stop-opacity:1" />
      <stop offset="60%" style="stop-color:#87CEEB;stop-opacity:1" />
      <stop offset="100%" style="stop-color:#00BFFF;stop-opacity:1" />
    </linearGradient>
    <filter id="diamondGlow2">
      <feGaussianBlur stdDeviation="1.5" result="coloredBlur"/>
      <feMerge>
        <feMergeNode in="coloredBlur"/>
        <feMergeNode in="SourceGraphic"/>
      </feMerge>
    </filter>
  </defs>
  <polygon points="32,4 44,24 58,28 44,42 38,60 32,50 26,60 20,42 6,28 20,24" fill="url(#diamondGrad2)" stroke="#0080FF" stroke-width="1.5" filter="url(#diamondGlow2)"/>
  <polygon points="32,12 40,26 50,29 40,39 36,52 32,45 28,52 24,39 14,29 24,26" fill="#FFF" opacity="0.5"/>
  <line x1="32" y1="12" x2="32" y2="45" stroke="#0080FF" stroke-width="0.5" opacity="0.3"/>
  <line x1="20" y1="26" x2="44" y2="39" stroke="#0080FF" stroke-width="0.5" opacity="0.3"/>
  <line x1="44" y1="26" x2="20" y2="39" stroke="#0080FF" stroke-width="0.5" opacity="0.3"/>
  <text x="32" y="37" font-family="Arial, sans-serif" font-size="16" font-weight="bold" fill="#0060A0" text-anchor="middle">II</text>
</svg>